<?xml version="1.0" encoding="UTF-8"?>
<svg version="1.1" xmlns="http://www.w3.org/2000/svg" width="512" height="512">
<path d="M0 0 C0.97471252 -0.0065712 1.94942505 -0.0131424 2.95367432 -0.01991272 C6.17549729 -0.03960083 9.39727365 -0.05130071 12.61914062 -0.0612793 C14.27590569 -0.06739259 14.27590569 -0.06739259 15.96614075 -0.07362938 C21.81661795 -0.09447479 27.66707184 -0.10878101 33.51757812 -0.11816406 C39.53498589 -0.12920239 45.55202122 -0.16357728 51.56929779 -0.20333576 C56.21757656 -0.22959369 60.86576798 -0.23786422 65.51411438 -0.24144554 C67.73068242 -0.24629074 69.9472471 -0.25784507 72.16374207 -0.27648354 C94.40265664 -0.4518105 94.40265664 -0.4518105 105.27539062 4.17700195 C106.04757935 4.49807419 106.81976807 4.81914642 107.61535645 5.14994812 C120.24669662 10.70204251 129.27871623 21.43615859 134.27539062 34.11450195 C136.81268638 41.22421611 137.42739349 47.42845741 137.43652344 54.91748047 C137.44148834 55.89379929 137.44645325 56.8701181 137.4515686 57.87602234 C137.46615931 61.10265818 137.47298844 64.3292448 137.47851562 67.5559082 C137.48427126 69.80687968 137.49002894 72.05785116 137.49578857 74.30882263 C137.50629092 79.0305911 137.51213806 83.75234259 137.515625 88.47412109 C137.52109664 94.50052707 137.54509961 100.52670563 137.57359695 106.5530405 C137.59230031 111.20556779 137.59743311 115.85804126 137.59896088 120.51060295 C137.60197247 122.73077571 137.60995002 124.95094786 137.62314606 127.17108345 C137.73341164 147.15501773 136.08994932 162.6955581 121.69335938 177.88793945 C109.71614894 189.22662332 95.67807421 193.49894565 79.44213867 193.45166016 C78.05212646 193.45932655 78.05212646 193.45932655 76.6340332 193.46714783 C73.60165767 193.48093157 70.56951232 193.48009539 67.53710938 193.4777832 C65.40778013 193.4816766 63.27845164 193.48601258 61.14912415 193.49076843 C56.69680254 193.4982068 52.24456027 193.49795692 47.79223633 193.49267578 C42.11691902 193.48688775 36.44192876 193.50380792 30.76666546 193.52702045 C26.37144608 193.54182997 21.97630414 193.54261965 17.58106422 193.53951073 C15.49011399 193.54002042 13.39915901 193.54519133 11.30823326 193.55532265 C-8.9632779 193.64149559 -25.92419641 191.64805926 -41.24804688 176.8762207 C-52.0060758 165.15098728 -55.85349468 151.32812865 -55.90161133 135.73779297 C-55.90818253 134.80516129 -55.91475372 133.8725296 -55.92152405 132.91163635 C-55.94118058 129.834726 -55.95290563 126.75786441 -55.96289062 123.6809082 C-55.96696615 122.62394178 -55.97104168 121.56697536 -55.97524071 120.47797966 C-55.99607378 114.87806268 -56.01038471 109.27816996 -56.01977539 103.67822266 C-56.03080463 97.92895225 -56.06517243 92.1800726 -56.10494709 86.43093967 C-56.13125115 81.9807418 -56.13947964 77.53063489 -56.14305687 73.08036613 C-56.14789107 70.96313795 -56.15941312 68.84591295 -56.17809486 66.72876167 C-56.33924128 47.24820804 -54.45879237 30.19247862 -40.41210938 15.30200195 C-28.98437405 4.60904488 -15.39545167 0.04522395 0 0 Z " fill="#004FAC" transform="translate(97.724609375,276.822998046875)"/>
<path d="M0 0 C0.9266748 -0.00511093 1.85334961 -0.01022186 2.80810547 -0.01548767 C5.84048101 -0.02927141 8.87262635 -0.02843523 11.9050293 -0.02612305 C14.03435855 -0.03001644 16.16368703 -0.03435242 18.29301453 -0.03910828 C22.74533613 -0.04654664 27.1975784 -0.04629676 31.64990234 -0.04101562 C37.32521965 -0.03522759 43.00020991 -0.05214777 48.67547321 -0.0753603 C53.07069259 -0.09016981 57.46583453 -0.09095949 61.86107445 -0.08785057 C63.95202468 -0.08836027 66.04297966 -0.09353117 68.13390541 -0.10366249 C88.40541657 -0.18983543 105.36633509 1.8036009 120.69018555 16.57543945 C131.41250475 28.26175265 135.29516022 42.05992728 135.34375 57.60620117 C135.3503212 58.52747299 135.3568924 59.44874481 135.36366272 60.39793396 C135.38331947 63.43757219 135.39504515 66.47716104 135.4050293 69.5168457 C135.40910482 70.56153141 135.41318035 71.60621712 135.41737938 72.68255997 C135.43821384 78.21879119 135.45252345 83.75499787 135.46191406 89.29125977 C135.47293588 94.97093191 135.50729454 100.6502077 135.54708576 106.32974052 C135.5734125 110.72936663 135.58162036 115.12890087 135.58519554 119.52859879 C135.59002494 121.61988101 135.6015328 123.71116016 135.62023354 125.80236435 C135.78498396 145.45671463 134.00852488 163.1201169 119.85424805 178.1496582 C108.42651273 188.84261528 94.83759034 193.40643621 79.44213867 193.45166016 C78.46742615 193.45823135 77.49271362 193.46480255 76.48846436 193.47157288 C73.26664139 193.49126099 70.04486503 193.50296087 66.82299805 193.51293945 C65.16623299 193.51905274 65.16623299 193.51905274 63.47599792 193.52528954 C57.62552072 193.54613494 51.77506683 193.56044117 45.92456055 193.56982422 C39.90715278 193.58086255 33.89011745 193.61523744 27.87284088 193.65499592 C23.22456211 193.68125385 18.57637069 193.68952438 13.92802429 193.6931057 C11.71145626 193.6979509 9.49489157 193.70950523 7.27839661 193.72814369 C-14.96051797 193.90347065 -14.96051797 193.90347065 -25.83325195 189.2746582 C-26.60544067 188.95358597 -27.37762939 188.63251373 -28.17321777 188.30171204 C-40.80455795 182.74961764 -49.83657756 172.01550156 -54.83325195 159.3371582 C-57.37054771 152.22744404 -57.98525482 146.02320275 -57.99438477 138.53417969 C-57.99934967 137.55786087 -58.00431458 136.58154205 -58.00942993 135.57563782 C-58.02402064 132.34900197 -58.03084976 129.12241536 -58.03637695 125.89575195 C-58.04213259 123.64478047 -58.04789027 121.393809 -58.0536499 119.14283752 C-58.06415225 114.42106905 -58.06999939 109.69931757 -58.07348633 104.97753906 C-58.07895797 98.95113309 -58.10296093 92.92495453 -58.13145828 86.89861965 C-58.15016164 82.24609236 -58.15529444 77.5936189 -58.1568222 72.94105721 C-58.15983379 70.72088444 -58.16781135 68.50071229 -58.18100739 66.28057671 C-58.29127297 46.29664242 -56.64781065 30.75610206 -42.2512207 15.5637207 C-30.27401027 4.22503684 -16.23593554 -0.04728549 0 0 Z " fill="#004EAC" transform="translate(334.833251953125,41.725341796875)"/>
<path d="M0 0 C0.92127182 -0.0065712 1.84254364 -0.0131424 2.79173279 -0.01991272 C5.83137102 -0.03956947 8.87095987 -0.05129515 11.91064453 -0.0612793 C12.95533024 -0.06535482 14.00001595 -0.06943035 15.0763588 -0.07362938 C20.61259002 -0.09446384 26.1487967 -0.10877345 31.68505859 -0.11816406 C37.36473074 -0.12918588 43.04400653 -0.16354454 48.72353935 -0.20333576 C53.12316546 -0.2296625 57.5226997 -0.23787036 61.92239761 -0.24144554 C64.01367984 -0.24627494 66.10495899 -0.2577828 68.19616318 -0.27648354 C87.85051346 -0.44123396 105.51391573 1.33522512 120.54345703 15.48950195 C131.23641411 26.91723727 135.80023504 40.50615966 135.84545898 55.90161133 C135.85203018 56.87632385 135.85860138 57.85103638 135.8653717 58.85528564 C135.88505981 62.07710861 135.8967597 65.29888497 135.90673828 68.52075195 C135.91081381 69.62526199 135.91488934 70.72977203 135.91908836 71.86775208 C135.93993377 77.71822928 135.95424 83.56868317 135.96362305 89.41918945 C135.97466137 95.43659722 136.00903626 101.45363255 136.04879475 107.47090912 C136.07505267 112.11918789 136.08332321 116.76737931 136.08690453 121.41572571 C136.09174972 123.63229374 136.10330406 125.84885843 136.12194252 128.06535339 C136.29726948 150.30426797 136.29726948 150.30426797 131.66845703 161.17700195 C131.3473848 161.94919067 131.02631256 162.72137939 130.69551086 163.51696777 C125.14341647 176.14830795 114.40930039 185.18032756 101.73095703 190.17700195 C94.62124287 192.71429771 88.41700158 193.32900482 80.92797852 193.33813477 C79.9516597 193.34309967 78.97534088 193.34806458 77.96943665 193.35317993 C74.7428008 193.36777064 71.51621419 193.37459976 68.28955078 193.38012695 C66.0385793 193.38588259 63.78760782 193.39164027 61.53663635 193.3973999 C56.81486788 193.40790225 52.09311639 193.41374939 47.37133789 193.41723633 C41.34493191 193.42270797 35.31875336 193.44671093 29.29241848 193.47520828 C24.63989119 193.49391164 19.98741773 193.49904444 15.33485603 193.5005722 C13.11468327 193.50358379 10.89451112 193.51156135 8.67437553 193.52475739 C-11.30955875 193.63502297 -26.85009912 191.99156065 -42.04248047 177.5949707 C-53.07678544 165.93927996 -57.65161291 152.19534439 -57.60620117 136.36547852 C-57.6113121 135.42919617 -57.61642303 134.49291382 -57.62168884 133.52825928 C-57.63549597 130.45798197 -57.63463442 127.38793146 -57.63232422 124.31762695 C-57.6362167 122.16444822 -57.6405525 120.01127025 -57.64530945 117.85809326 C-57.65275312 113.35271716 -57.65249433 108.84741944 -57.6472168 104.34204102 C-57.64143207 98.59831517 -57.65833833 92.85491282 -57.68156147 87.11124039 C-57.69637092 82.66540687 -57.6971606 78.2196499 -57.69405174 73.77379608 C-57.69456158 71.65772614 -57.6997351 69.54165153 -57.70986366 67.42560577 C-57.79532467 47.07157175 -55.86923309 30.04653775 -41.03076172 14.65356445 C-29.34444852 3.93124525 -15.54627389 0.04858978 0 0 Z " fill="#004FAC" transform="translate(99.33154296875,41.822998046875)"/>
<path d="M0 0 C2.44257849 0.02145607 4.88221713 0.00009793 7.32470703 -0.02539062 C21.49500609 -0.05081989 33.4279293 2.62084995 44.10205078 12.52148438 C51.24628256 19.98560713 56.08519956 29.20437963 56.05932617 39.65722656 C56.05921288 41.1883609 56.05921288 41.1883609 56.05909729 42.75042725 C56.053936 43.84534485 56.04877472 44.94026245 56.04345703 46.06835938 C56.04204208 47.19469788 56.04062714 48.32103638 56.03916931 49.48150635 C56.03357278 53.07819273 56.02102088 56.67481681 56.00830078 60.27148438 C56.00328534 62.71028556 55.99872251 65.14908772 55.99462891 67.58789062 C55.98360448 73.56577646 55.96686977 79.54362596 55.94580078 85.52148438 C57.19701721 85.51149162 57.19701721 85.51149162 58.47351074 85.501297 C66.35884071 85.44102811 74.24409261 85.39543005 82.12960052 85.36604786 C86.18301775 85.35043402 90.23624364 85.32927476 94.28955078 85.29516602 C98.20585494 85.26241877 102.12197579 85.24459919 106.03840637 85.23685265 C107.5278461 85.23133657 109.01727651 85.2205653 110.50663757 85.2042942 C119.58486168 85.1091169 126.82968145 85.26577207 134.69580078 90.27148438 C139.60288302 95.17856661 141.73955467 100.42779269 142.19580078 107.27148438 C142.09696149 113.16889518 140.42587007 117.76140198 136.63330078 122.27148438 C129.86698832 127.93630411 125.69020689 129.63511066 116.98095703 129.68261719 C116.28763779 129.68758209 115.59431854 129.692547 114.87998962 129.69766235 C112.58941646 129.71224665 110.29891273 129.71908261 108.00830078 129.72460938 C106.82820435 129.72885044 106.82820435 129.72885044 105.62426758 129.73317719 C101.45426092 129.74816124 97.28428873 129.75739338 93.11425781 129.76171875 C88.83542521 129.76717709 84.55691508 129.79115101 80.27818298 129.8196907 C76.96473318 129.83845668 73.65135853 129.84353022 70.33786011 129.84505463 C68.76242323 129.84805443 67.18698681 129.85599094 65.61160278 129.86923981 C49.86863602 129.99209832 36.84232521 127.85303794 24.75830078 117.02148438 C17.49486712 109.38897381 12.80559774 98.90168546 12.83227539 88.36401367 C12.83235092 87.36335373 12.83242645 86.36269379 12.83250427 85.33171082 C12.83766556 84.26382828 12.84282684 83.19594574 12.84814453 82.09570312 C12.84955948 80.99297562 12.85097443 79.89024811 12.85243225 78.75410461 C12.85802074 75.23903671 12.87057119 71.72403296 12.88330078 68.20898438 C12.88831727 65.82291759 12.89287991 63.4368498 12.89697266 61.05078125 C12.90798642 55.20765765 12.9252432 49.36458188 12.94580078 43.52148438 C6.01580078 43.52148438 -0.91419922 43.52148438 -8.05419922 43.52148438 C-8.02801514 45.63039063 -8.00183105 47.73929687 -7.97485352 49.91210938 C-7.89179038 56.90085693 -7.83669051 63.88962701 -7.79513836 70.8787384 C-7.76910851 75.11392452 -7.73383311 79.34860242 -7.67700195 83.58349609 C-7.62244368 87.67489576 -7.592729 91.76580841 -7.579813 95.85754395 C-7.57061555 97.41401836 -7.55265495 98.97046785 -7.52554893 100.5267334 C-7.36587665 110.07908871 -7.67037292 116.91741866 -14.49736023 124.02368164 C-19.28041856 128.41772851 -24.38241199 130.04048894 -30.84326172 129.83007812 C-37.98041983 128.83390235 -43.4140226 126.01833356 -47.89794922 120.40039062 C-50.80387554 115.67826035 -51.35187179 111.44355892 -51.34472656 105.98413086 C-51.35144379 105.24189774 -51.35816101 104.49966461 -51.36508179 103.73493958 C-51.38403548 101.28741703 -51.38798556 98.84016946 -51.39013672 96.39257812 C-51.3965698 94.67969147 -51.40329854 92.9668059 -51.41030884 91.25392151 C-51.42227744 87.66201231 -51.42599043 84.07019921 -51.42480469 80.47827148 C-51.42460229 75.90452655 -51.45182401 71.3314085 -51.48634911 66.75781155 C-51.50873978 63.21701811 -51.51263842 59.67637216 -51.51158524 56.13551521 C-51.51392602 54.45122189 -51.52266247 52.76692355 -51.53824997 51.08270073 C-51.66365772 36.12377025 -49.53339202 23.98695414 -39.05419922 12.52148438 C-27.44063686 1.90693814 -15.15304873 -0.15812935 0 0 Z " fill="#004EAC" transform="translate(328.05419921875,276.478515625)"/>
<path d="M0 0 C1.32019135 -0.0076664 1.32019135 -0.0076664 2.66705322 -0.01548767 C5.57571212 -0.02938493 8.48413412 -0.02842682 11.39282227 -0.02612305 C13.41537057 -0.03000984 15.43791805 -0.03434448 17.46046448 -0.03910828 C21.69974412 -0.04657073 25.93894048 -0.04627896 30.17822266 -0.04101562 C35.61012763 -0.03522035 41.0416917 -0.05215337 46.47354031 -0.0753603 C50.65055839 -0.09009353 54.8274943 -0.0909699 59.00453377 -0.08785057 C61.00719948 -0.08836397 63.00986977 -0.09360515 65.0125103 -0.10366249 C67.81325295 -0.11600179 70.61333046 -0.10925027 73.4140625 -0.09765625 C74.24071915 -0.10529999 75.06737579 -0.11294373 75.91908264 -0.12081909 C80.50473739 -0.0788707 83.61608989 0.20947605 87.27172852 3.2746582 C90.88320068 7.59060932 90.70511189 11.73494802 90.67578125 17.10058594 C90.6826445 17.97925323 90.68950775 18.85792053 90.69657898 19.76321411 C90.71484907 22.66172541 90.71100914 25.55969554 90.70532227 28.45825195 C90.709884 30.47697628 90.71518955 32.49569905 90.72120667 34.51441956 C90.73013821 38.74356397 90.72771413 42.97251955 90.71777344 47.20166016 C90.70628445 52.61673631 90.72649415 58.0311603 90.75569057 63.44615078 C90.77405174 67.61465077 90.77376025 71.78299445 90.76805305 75.95152473 C90.76789983 77.94778419 90.77394539 79.94405424 90.78634453 81.94027519 C90.8012508 84.73370954 90.7905801 87.52593886 90.7734375 90.31933594 C90.78310547 91.14082626 90.79277344 91.96231659 90.80273438 92.80870056 C90.73510482 98.08138186 89.77929706 101.10149436 86.27172852 105.2746582 C82.35821493 107.88366726 79.03171686 107.57750015 74.48925781 107.58105469 C73.59137543 107.5893782 72.69349304 107.59770172 71.7684021 107.60627747 C68.79420662 107.63041189 65.82023035 107.6391542 62.84594727 107.64575195 C60.77952508 107.65471633 58.71310357 107.66383814 56.64668274 107.67311096 C52.31147686 107.68961334 47.97634833 107.69730323 43.64111328 107.70019531 C38.089152 107.70557748 32.53791886 107.74324568 26.98616314 107.78893948 C22.71644954 107.81870131 18.44691136 107.8259187 14.17710304 107.82692146 C12.13057944 107.83112622 10.08405542 107.84357069 8.0376339 107.86443901 C5.17200811 107.89133218 2.30807088 107.8865338 -0.55761719 107.87402344 C-1.82261803 107.89627487 -1.82261803 107.89627487 -3.11317444 107.91897583 C-7.2534052 107.86757419 -9.93406272 107.53859405 -13.23893738 104.92469788 C-17.37046435 100.52644922 -16.88699411 96.28954612 -16.90527344 90.56811523 C-16.91184464 89.67838013 -16.91841583 88.78864502 -16.92518616 87.87194824 C-16.94490914 84.92545489 -16.95657828 81.97901242 -16.96655273 79.0324707 C-16.97062826 78.02646694 -16.97470379 77.02046318 -16.97890282 75.98397446 C-16.99975723 70.66143753 -17.01406285 65.33892636 -17.0234375 60.01635742 C-17.03451301 54.51599293 -17.06892799 49.01603175 -17.1086092 43.51581001 C-17.13473387 39.2881901 -17.14312555 35.06066702 -17.14671898 30.83297348 C-17.15159406 28.80516708 -17.16323414 26.77736526 -17.18175697 24.7496376 C-17.20606463 21.91276131 -17.20519894 19.07693845 -17.19824219 16.23999023 C-17.21105225 15.4024118 -17.2238623 14.56483337 -17.23706055 13.70187378 C-17.20212765 9.7947595 -17.01622054 7.7496718 -14.94889832 4.33932495 C-10.24074758 -0.03816078 -6.2798028 -0.01877404 0 0 Z " fill="#3D95EC" transform="translate(336.728271484375,84.725341796875)"/>
<path d="M0 0 C0.88973511 -0.00511093 1.77947021 -0.01022186 2.69616699 -0.01548767 C5.6427276 -0.02940823 8.58905491 -0.02842488 11.53564453 -0.02612305 C13.58204231 -0.03000896 15.62843928 -0.03434341 17.67483521 -0.03910828 C21.96716932 -0.04657604 26.25942119 -0.04627542 30.55175781 -0.04101562 C36.05207121 -0.0352239 41.55204755 -0.05214223 47.05230522 -0.0753603 C51.27993742 -0.09009437 55.50748843 -0.09096971 59.73514175 -0.08785057 C61.76292716 -0.08836407 63.79071709 -0.09360708 65.81847763 -0.10366249 C68.65524916 -0.1160015 71.49136395 -0.10925007 74.328125 -0.09765625 C75.16570343 -0.10529999 76.00328186 -0.11294373 76.86624146 -0.12081909 C82.58535391 -0.06916628 85.77298924 0.97523084 90.08070374 4.90516663 C91.94162384 8.5410541 91.71871967 12.19400882 91.69750977 16.18652344 C91.70437302 17.08615814 91.71123627 17.98579285 91.7183075 18.91268921 C91.73660795 21.8863707 91.7327333 24.85952623 91.72705078 27.83325195 C91.73161108 29.9006416 91.7369162 31.96802973 91.74293518 34.03541565 C91.75187272 38.36888791 91.74943587 42.70217595 91.73950195 47.03564453 C91.72801268 52.58872522 91.74822011 58.14117 91.77741909 63.69416714 C91.79576631 67.96385233 91.79549154 72.23338473 91.78978157 76.50309944 C91.78962817 78.55042475 91.79568803 80.59776029 91.80807304 82.64504814 C91.82295279 85.50823717 91.81232797 88.3702463 91.79516602 91.23339844 C91.80483398 92.07875656 91.81450195 92.92411469 91.82446289 93.79508972 C91.77525342 97.71622513 91.58506214 99.79337227 89.51210022 103.21473694 C84.80327362 107.58669368 80.84230537 107.56808243 74.56518555 107.54931641 C73.2449942 107.5569828 73.2449942 107.5569828 71.89813232 107.56480408 C68.98947342 107.57870134 66.08105143 107.57774323 63.17236328 107.57543945 C61.14981498 107.57932625 59.12726749 107.58366088 57.10472107 107.58842468 C52.86544143 107.59588714 48.62624507 107.59559537 44.38696289 107.59033203 C38.95505792 107.58453675 33.52349385 107.60146978 28.09164524 107.6246767 C23.91462715 107.63940993 19.73769125 107.64028631 15.56065178 107.63716698 C13.55798607 107.63768037 11.55531577 107.64292156 9.55267525 107.6529789 C6.7519326 107.6653182 3.95185509 107.65856668 1.15112305 107.64697266 C-0.08886192 107.65843826 -0.08886192 107.65843826 -1.35389709 107.6701355 C-5.92049069 107.62836147 -9.11187928 107.39399871 -12.70654297 104.2746582 C-16.01557958 99.39691635 -16.14215261 95.10915137 -16.1105957 89.42700195 C-16.11745895 88.5579422 -16.1243222 87.68888245 -16.13139343 86.79348755 C-16.14963177 83.93287627 -16.1458286 81.07281491 -16.14013672 78.2121582 C-16.14469953 76.21728335 -16.1500054 74.22241007 -16.15602112 72.22753906 C-16.16494609 68.05144861 -16.16253556 63.87554946 -16.15258789 59.69946289 C-16.14109165 54.35279378 -16.16132303 49.00678447 -16.19050503 43.66020203 C-16.20886527 39.54231588 -16.20857503 35.42458796 -16.20286751 31.30667114 C-16.20271431 29.33553135 -16.20875723 27.36438082 -16.22115898 25.39328003 C-16.23606596 22.63587206 -16.22539465 19.87968468 -16.20825195 17.12231445 C-16.21791992 16.31174591 -16.22758789 15.50117737 -16.23754883 14.66604614 C-16.16942823 9.42337595 -15.18684512 6.42624329 -11.70654297 2.2746582 C-7.80583992 -0.3258105 -4.52507107 -0.01332002 0 0 Z " fill="#8CD0FE" transform="translate(100.70654296875,319.725341796875)"/>
<path d="M0 0 C0.8786673 -0.00686325 1.75733459 -0.0137265 2.66262817 -0.02079773 C5.56113947 -0.03906782 8.4591096 -0.03522789 11.35766602 -0.02954102 C13.37639034 -0.03410275 15.39511311 -0.0394083 17.41383362 -0.04542542 C21.64297803 -0.05435696 25.87193361 -0.05193288 30.10107422 -0.04199219 C35.51615037 -0.0305032 40.93057436 -0.0507129 46.34556484 -0.07990932 C50.51406483 -0.09827049 54.68240852 -0.097979 58.8509388 -0.0922718 C60.84719825 -0.09211858 62.8434683 -0.09816414 64.83968925 -0.11056328 C67.6331236 -0.12546955 70.42535292 -0.11479885 73.21875 -0.09765625 C74.04024033 -0.10732422 74.86173065 -0.11699219 75.70811462 -0.12695312 C80.98079592 -0.05932357 84.00090843 0.89648419 88.17407227 4.40405273 C90.77454097 8.30475579 90.46205049 11.58552463 90.44873047 16.1105957 C90.4538414 17.00033081 90.45895233 17.89006592 90.46421814 18.8067627 C90.4781387 21.7533233 90.47715535 24.69965062 90.47485352 27.64624023 C90.47873943 29.69263801 90.48307388 31.73903499 90.48783875 33.78543091 C90.49530651 38.07776502 90.49500589 42.37001689 90.48974609 46.66235352 C90.48395436 52.16266691 90.5008727 57.66264326 90.52409077 63.16290092 C90.53882484 67.39053313 90.53970018 71.61808413 90.53658104 75.84573746 C90.53709453 77.87352287 90.54233755 79.90131279 90.55239296 81.92907333 C90.56473196 84.76584487 90.55798054 87.60195965 90.54638672 90.4387207 C90.55403046 91.27629913 90.56167419 92.11387756 90.56954956 92.97683716 C90.52792012 97.58613962 90.26196866 100.73293765 87.17407227 104.40405273 C82.84050641 108.04172498 78.63314139 107.83719801 73.24047852 107.80810547 C72.35045135 107.81496872 71.46042419 107.82183197 70.54342651 107.8289032 C67.6076452 107.84717301 64.67239811 107.84333382 61.73657227 107.83764648 C59.69303209 107.84220782 57.64949344 107.84751325 55.60595703 107.85353088 C51.32553877 107.86246207 47.04530708 107.86003828 42.76489258 107.85009766 C37.28021907 107.83860131 31.79618874 107.85882985 26.31159973 107.88801479 C22.0925284 107.90636095 17.8736117 107.90608759 13.6545105 107.90037727 C11.63230486 107.9002239 9.61008885 107.90628137 7.58792114 107.91866875 C4.7607587 107.93354884 1.9347911 107.92292402 -0.89233398 107.90576172 C-1.72677032 107.91542969 -2.56120667 107.92509766 -3.42092896 107.93505859 C-7.3169611 107.88554114 -9.36016519 107.68689979 -12.75927734 105.62269592 C-17.14142689 100.91825908 -17.11935787 96.95487892 -17.10058594 90.67578125 C-17.10825233 89.3555899 -17.10825233 89.3555899 -17.11607361 88.00872803 C-17.12997087 85.10006913 -17.12901276 82.19164713 -17.12670898 79.28295898 C-17.13059578 77.26041068 -17.13493041 75.2378632 -17.13969421 73.21531677 C-17.14715667 68.97603713 -17.1468649 64.73684077 -17.14160156 60.49755859 C-17.13580628 55.06565362 -17.15273931 49.63408955 -17.17594624 44.20224094 C-17.19067947 40.02522286 -17.19155584 35.84828695 -17.18843651 31.67124748 C-17.1889499 29.66858177 -17.19419109 27.66591148 -17.20424843 25.66327095 C-17.21658773 22.8625283 -17.20983621 20.06245079 -17.19824219 17.26171875 C-17.20588593 16.4350621 -17.21352966 15.60840546 -17.22140503 14.75669861 C-17.17945664 10.17104386 -16.89110989 7.05969136 -13.82592773 3.40405273 C-9.50997662 -0.20741943 -5.36563791 -0.02933064 0 0 Z " fill="#8CD0FE" transform="translate(101.825927734375,84.595947265625)"/>
<path d="M0 0 C1.53498202 -0.00407014 3.06996111 -0.0094145 4.60493469 -0.01593018 C8.75576585 -0.029557 12.90637224 -0.02432439 17.05720711 -0.01479292 C21.41098744 -0.00717222 25.76474915 -0.01424861 30.11853027 -0.01895142 C37.42850177 -0.02440196 44.73838219 -0.01723578 52.04833984 -0.00292969 C60.48718296 0.01339549 68.92580859 0.00810649 77.36464643 -0.0084089 C84.62349029 -0.02204377 91.88226886 -0.02393366 99.14112139 -0.0160929 C103.47063795 -0.01142737 107.80005246 -0.01076061 112.12956238 -0.02070236 C116.20084448 -0.02939894 120.27184749 -0.02330128 124.34309959 -0.00601959 C125.83296941 -0.00206907 127.32286291 -0.00316411 128.81272316 -0.00980759 C137.72116192 -0.04585455 144.83936444 0.22718966 152.55664062 5.13818359 C157.46372286 10.04526583 159.60039451 15.2944919 160.05664062 22.13818359 C159.95780134 28.0355944 158.28670991 32.6281012 154.49414062 37.13818359 C147.98149607 42.5906302 143.8223812 44.50393429 135.43258667 44.53535461 C134.12051743 44.54250992 132.80844818 44.54966522 131.45661926 44.55703735 C130.00412011 44.55987747 128.5516207 44.56258922 127.09912109 44.56518555 C125.56797634 44.57145279 124.03683311 44.57809983 122.50569153 44.58509827 C117.47841445 44.60611353 112.45113716 44.61649967 107.42382812 44.62646484 C105.69053252 44.63051363 103.95723708 44.63463059 102.2239418 44.63881493 C94.0782106 44.65786262 85.93248842 44.6720934 77.78673923 44.6804269 C68.39762869 44.690192 59.00875436 44.71649425 49.61972702 44.75692779 C42.35415543 44.78713801 35.08865135 44.80190049 27.82301819 44.80520791 C23.48771878 44.80755318 19.15267182 44.81644502 14.81744003 44.84166908 C10.73469442 44.86504033 6.65236585 44.86914697 2.56957054 44.8589077 C1.07730022 44.85841439 -0.41499126 44.86467408 -1.90719795 44.87846375 C-10.87832675 44.95667772 -20.09826369 45.00432411 -27.12506294 38.63806629 C-32.54998668 32.80120901 -33.65979939 27.22769458 -33.50585938 19.39599609 C-32.88504485 13.42065633 -30.58577457 9.81224459 -26.44335938 5.57568359 C-17.94364271 -0.14527955 -9.8853648 -0.04408008 0 0 Z " fill="#004EAB" transform="translate(310.193359375,425.61181640625)"/>
<path d="M0 0 C8.75644589 4.59139485 14.34147637 10.96080271 17.89453125 20.1953125 C20.34646906 28.68409031 19.54894237 37.03510332 16.0859375 45.09375 C10.85293988 54.02156108 3.61680107 59.91376318 -6.2890625 62.78125 C-16.96385655 64.05205882 -26.04107911 62.15701194 -34.875 55.8203125 C-41.8260588 49.93455006 -45.37581615 42.76194922 -46.23046875 33.76171875 C-46.5740564 23.53167359 -44.76786686 16.25516305 -38.2890625 8.28125 C-28.64371772 -1.9431774 -13.12921715 -5.27120986 0 0 Z " fill="#004EAC" transform="translate(450.9140625,278.90625)"/>
</svg>
